<svg width="22" height="18" viewBox="0 0 22 18" fill="none" xmlns="http://www.w3.org/2000/svg">
<path d="M4 10H7M1 6L3 7L4.27064 3.18807C4.53292 2.40125 4.66405 2.00784 4.90729 1.71698C5.12208 1.46013 5.39792 1.26132 5.70951 1.13878C6.06236 1 6.47705 1 7.30643 1H14.6936C15.523 1 15.9376 1 16.2905 1.13878C16.6021 1.26132 16.8779 1.46013 17.0927 1.71698C17.3359 2.00784 17.4671 2.40125 17.7294 3.18807L19 7L21 6M15 10H18M5.8 7H16.2C17.8802 7 18.7202 7 19.362 7.32698C19.9265 7.6146 20.3854 8.07354 20.673 8.63803C21 9.27976 21 10.1198 21 11.8V14.5C21 14.9647 21 15.197 20.9616 15.3902C20.8038 16.1836 20.1836 16.8038 19.3902 16.9616C19.197 17 18.9647 17 18.5 17H18C16.8954 17 16 16.1046 16 15C16 14.7239 15.7761 14.5 15.5 14.5H6.5C6.22386 14.5 6 14.7239 6 15C6 16.1046 5.10457 17 4 17H3.5C3.03534 17 2.80302 17 2.60982 16.9616C1.81644 16.8038 1.19624 16.1836 1.03843 15.3902C1 15.197 1 14.9647 1 14.5V11.8C1 10.1198 1 9.27976 1.32698 8.63803C1.6146 8.07354 2.07354 7.6146 2.63803 7.32698C3.27976 7 4.11984 7 5.8 7Z" stroke="#9197B3" stroke-width="2" stroke-linecap="round" stroke-linejoin="round"/>
</svg>
