<svg width="22" height="18" viewBox="0 0 22 18" fill="none" xmlns="http://www.w3.org/2000/svg">
<path d="M4 9.56756H7M1 5.88476L3 6.80546L4.27064 3.29581C4.53292 2.57138 4.66405 2.20917 4.90729 1.94138C5.12208 1.7049 5.39792 1.52185 5.70951 1.40902C6.06236 1.28125 6.47705 1.28125 7.30643 1.28125H14.6936C15.523 1.28125 15.9376 1.28125 16.2905 1.40902C16.6021 1.52185 16.8779 1.7049 17.0927 1.94138C17.3359 2.20917 17.4671 2.57138 17.7294 3.29581L19 6.80546L21 5.88476M15 9.56756H18M5.8 6.80546H16.2C17.8802 6.80546 18.7202 6.80546 19.362 7.10651C19.9265 7.37132 20.3854 7.79387 20.673 8.31359C21 8.90444 21 9.6779 21 11.2248V13.7107C21 14.1385 21 14.3524 20.9616 14.5303C20.8038 15.2608 20.1836 15.8318 19.3902 15.9771C19.197 16.0125 18.9647 16.0125 18.5 16.0125H18C16.8954 16.0125 16 15.188 16 14.1711C16 13.9168 15.7761 13.7107 15.5 13.7107H6.5C6.22386 13.7107 6 13.9168 6 14.1711C6 15.188 5.10457 16.0125 4 16.0125H3.5C3.03534 16.0125 2.80302 16.0125 2.60982 15.9771C1.81644 15.8318 1.19624 15.2608 1.03843 14.5303C1 14.3524 1 14.1385 1 13.7107V11.2248C1 9.6779 1 8.90444 1.32698 8.31359C1.6146 7.79387 2.07354 7.37132 2.63803 7.10651C3.27976 6.80546 4.11984 6.80546 5.8 6.80546Z" stroke="white" stroke-width="2" stroke-linecap="round" stroke-linejoin="round"/>
</svg>
