<svg width="19" height="19" viewBox="0 0 19 19" fill="none" xmlns="http://www.w3.org/2000/svg">
<path d="M9.35727 12.1752C6.1872 12.1752 3.36807 13.5845 1.57327 15.7715C1.18698 16.2422 0.993832 16.4775 1.00015 16.7956C1.00503 17.0413 1.17263 17.3513 1.38264 17.5031C1.65446 17.6995 2.03114 17.6995 2.7845 17.6995H15.93C16.6834 17.6995 17.0601 17.6995 17.3319 17.5031C17.5419 17.3513 17.7095 17.0413 17.7144 16.7956C17.7207 16.4775 17.5276 16.2422 17.1413 15.7715C15.3465 13.5845 12.5273 12.1752 9.35727 12.1752Z" stroke="white" stroke-width="2" stroke-linecap="round" stroke-linejoin="round"/>
<path d="M9.35727 9.41314C11.8426 9.41314 13.8573 7.55819 13.8573 5.26999C13.8573 2.98178 11.8426 1.12683 9.35727 1.12683C6.87199 1.12683 4.85727 2.98178 4.85727 5.26999C4.85727 7.55819 6.87199 9.41314 9.35727 9.41314Z" stroke="white" stroke-width="2" stroke-linecap="round" stroke-linejoin="round"/>
</svg>
