<svg width="37" height="38" viewBox="0 0 37 38" fill="none" xmlns="http://www.w3.org/2000/svg">
<path d="M18.5002 35.5876C17.4673 35.5876 16.419 35.3573 15.6019 34.8814L7.12278 30.0147C3.66945 27.6965 3.45361 27.3434 3.45361 23.7049V14.8312C3.45361 11.1927 3.65403 10.8396 7.0457 8.55212L15.5865 3.63938C17.2052 2.70289 19.749 2.70289 21.3677 3.63938L29.8777 8.52142C33.3311 10.8396 33.5469 11.1927 33.5469 14.8312V23.6895C33.5469 27.328 33.3465 27.6811 29.9548 29.9686L21.414 34.8814C20.5815 35.3573 19.5331 35.5876 18.5002 35.5876ZM18.5002 5.25137C17.8527 5.25137 17.2207 5.37419 16.7736 5.63518L8.29445 10.5172C5.78153 12.206 5.78153 12.206 5.78153 14.8312V23.6895C5.78153 26.3148 5.78153 26.3148 8.35611 28.0496L16.7736 32.8856C17.6832 33.4075 19.3327 33.4075 20.2423 32.8856L28.7215 28.0035C31.219 26.3148 31.219 26.3148 31.219 23.6895V14.8312C31.219 12.206 31.219 12.206 28.6444 10.4712L20.2269 5.63518C19.7798 5.37419 19.1477 5.25137 18.5002 5.25137Z" fill="#1D1D28"/>
<path d="M18.5 25.0255C15.3088 25.0255 12.7188 22.4463 12.7188 19.2684C12.7188 16.0904 15.3088 13.5112 18.5 13.5112C21.6912 13.5112 24.2812 16.0904 24.2812 19.2684C24.2812 22.4463 21.6912 25.0255 18.5 25.0255ZM18.5 15.8141C16.5883 15.8141 15.0312 17.3647 15.0312 19.2684C15.0312 21.172 16.5883 22.7226 18.5 22.7226C20.4117 22.7226 21.9688 21.172 21.9688 19.2684C21.9688 17.3647 20.4117 15.8141 18.5 15.8141Z" fill="#1D1D28"/>
</svg>
