<svg width="22" height="18" viewBox="0 0 22 18" fill="none" xmlns="http://www.w3.org/2000/svg">
<path fill-rule="evenodd" clip-rule="evenodd" d="M7.16134 -0.000103983C7.20928 -3.23378e-05 7.25763 3.9903e-05 7.3064 3.9903e-05H14.6935C14.7423 3.9903e-05 14.7907 -3.23378e-05 14.8386 -0.000103983C15.5221 -0.00112453 16.122 -0.00202027 16.6565 0.208203C17.1239 0.392023 17.5376 0.690241 17.8598 1.07551C18.2283 1.51612 18.4171 2.0855 18.6323 2.73422C18.6474 2.77973 18.6626 2.82562 18.678 2.87188L19.584 5.58997L20.5528 5.10561C21.0467 4.85862 21.6474 5.05885 21.8944 5.55283C22.1414 6.0468 21.9412 6.64748 21.4472 6.89447L20.8498 7.19317C21.1354 7.48319 21.3769 7.81688 21.564 8.18408C21.8113 8.66941 21.9099 9.18612 21.9558 9.74821C22 10.2894 22 10.9538 22 11.7587V14.5C22 14.5283 22 14.5562 22 14.5839C22.0003 14.9646 22.0006 15.2925 21.9423 15.5853C21.7056 16.7754 20.7753 17.7057 19.5852 17.9424C19.2924 18.0006 18.9645 18.0004 18.5838 18.0001C18.5562 18.0001 18.5282 18 18.5 18H18C16.5135 18 15.2795 16.9189 15.0415 15.5H6.9585C6.72046 16.9189 5.48647 18 3.99997 18H3.49997C3.47173 18 3.44378 18.0001 3.4161 18.0001C3.0354 18.0004 2.70756 18.0006 2.4147 17.9424C1.22463 17.7057 0.294339 16.7754 0.057619 15.5853C-0.000633299 15.2925 -0.000372349 14.9646 -6.94384e-05 14.5839C-4.73846e-05 14.5562 -2.50925e-05 14.5283 -2.50925e-05 14.5L-2.55693e-05 11.7587C-3.83247e-05 10.9538 -4.88162e-05 10.2894 0.0441685 9.74821C0.0900937 9.18612 0.188658 8.66941 0.435949 8.18408C0.623043 7.81688 0.864508 7.48319 1.15016 7.19317L0.552761 6.89447C0.0587828 6.64748 -0.141442 6.0468 0.105548 5.55283C0.352537 5.05885 0.95321 4.85862 1.44719 5.10561L2.41591 5.58997L3.32193 2.87188C3.33736 2.82562 3.35258 2.77972 3.36767 2.73422C3.58284 2.0855 3.77168 1.51612 4.14015 1.07551C4.46233 0.690242 4.87609 0.392023 5.34347 0.208203C5.87799 -0.00202027 6.47787 -0.00112453 7.16134 -0.000103983ZM4.38356 6.01155C4.78758 6.00002 5.24444 6.00003 5.75868 6.00004H16.2413C16.7555 6.00003 17.2124 6.00002 17.6164 6.01155L16.7806 3.50434C16.4914 2.63657 16.4177 2.46874 16.3256 2.35853C16.2182 2.23011 16.0803 2.1307 15.9245 2.06943C15.7908 2.01685 15.6082 2.00004 14.6935 2.00004H7.3064C6.3917 2.00004 6.20918 2.01685 6.07549 2.06943C5.91969 2.1307 5.78177 2.23011 5.67438 2.35853C5.58222 2.46874 5.50856 2.63658 5.2193 3.50434L4.38356 6.01155ZM3.91101 8.03759C3.4726 8.07341 3.24839 8.13834 3.09199 8.21803C2.71567 8.40977 2.40971 8.71573 2.21796 9.09206C2.13827 9.24846 2.07335 9.47266 2.03753 9.91108C2.00075 10.3612 1.99997 10.9435 1.99997 11.8V14.5C1.99997 15.0126 2.00482 15.1229 2.01919 15.1951C2.0981 15.5918 2.40819 15.9019 2.80488 15.9808C2.87713 15.9952 2.98739 16 3.49997 16H3.99997C4.55226 16 4.99997 15.5523 4.99997 15C4.99997 14.1716 5.67155 13.5 6.49997 13.5H15.5C16.3284 13.5 17 14.1716 17 15C17 15.5523 17.4477 16 18 16H18.5C19.0126 16 19.1228 15.9952 19.1951 15.9808C19.5918 15.9019 19.9019 15.5918 19.9808 15.1951C19.9951 15.1229 20 15.0126 20 14.5V11.8C20 10.9435 19.9992 10.3612 19.9624 9.91108C19.9266 9.47266 19.8617 9.24846 19.782 9.09206C19.5902 8.71573 19.2843 8.40977 18.908 8.21803C18.7516 8.13834 18.5274 8.07341 18.0889 8.03759C17.6388 8.00082 17.0566 8.00004 16.2 8.00004H5.79997C4.9434 8.00004 4.3611 8.00082 3.91101 8.03759ZM2.99997 10C2.99997 9.44775 3.44769 9.00004 3.99997 9.00004H6.99997C7.55226 9.00004 7.99998 9.44775 7.99998 10C7.99998 10.5523 7.55226 11 6.99997 11H3.99997C3.44769 11 2.99997 10.5523 2.99997 10ZM14 10C14 9.44775 14.4477 9.00004 15 9.00004H18C18.5523 9.00004 19 9.44775 19 10C19 10.5523 18.5523 11 18 11H15C14.4477 11 14 10.5523 14 10Z" fill="white"/>
</svg>
