<svg width="19" height="20" viewBox="0 0 19 20" fill="none" xmlns="http://www.w3.org/2000/svg">
<path fill-rule="evenodd" clip-rule="evenodd" d="M9.35727 2C7.42428 2 5.85727 3.567 5.85727 5.5C5.85727 7.433 7.42428 9 9.35727 9C11.2903 9 12.8573 7.433 12.8573 5.5C12.8573 3.567 11.2903 2 9.35727 2ZM3.85727 5.5C3.85727 2.46243 6.31971 0 9.35727 0C12.3948 0 14.8573 2.46243 14.8573 5.5C14.8573 8.53757 12.3948 11 9.35727 11C6.31971 11 3.85727 8.53757 3.85727 5.5ZM9.35727 14C6.51824 14 3.98776 15.3693 2.37112 17.5088C2.27222 17.6397 2.19653 17.74 2.13357 17.8281C2.08577 17.895 2.05316 17.9442 2.03044 17.9814C2.17907 17.9984 2.39084 18 2.78451 18H15.93C16.3237 18 16.5355 17.9984 16.6841 17.9814C16.6614 17.9442 16.6288 17.895 16.581 17.8281C16.518 17.74 16.4423 17.6397 16.3434 17.5088C14.7268 15.3693 12.1963 14 9.35727 14ZM0.775418 16.3031C2.74838 13.692 5.85615 12 9.35727 12C12.8584 12 15.9662 13.692 17.9391 16.3031C17.948 16.3149 17.957 16.3268 17.966 16.3387C18.1356 16.563 18.3175 16.8035 18.4475 17.0356C18.6048 17.3165 18.7215 17.6414 18.7142 18.0366C18.7084 18.3542 18.6122 18.6516 18.4953 18.8864C18.3784 19.1212 18.1992 19.3772 17.9493 19.5734C17.6159 19.835 17.253 19.9276 16.9306 19.9662C16.6478 20.0001 16.3126 20.0001 15.9756 20C15.9604 20 15.9452 20 15.93 20H2.78451C2.76932 20 2.75412 20 2.73893 20C2.40194 20.0001 2.06676 20.0001 1.78392 19.9662C1.46153 19.9276 1.09862 19.835 0.765297 19.5734C0.515351 19.3772 0.336124 19.1212 0.219249 18.8864C0.102373 18.6516 0.00612779 18.3542 0.00031842 18.0366C-0.00690858 17.6414 0.1097 17.3165 0.267035 17.0356C0.397019 16.8035 0.578909 16.563 0.748543 16.3387C0.757539 16.3268 0.7665 16.3149 0.775418 16.3031Z" fill="white"/>
</svg>
