<svg width="22" height="22" viewBox="0 0 22 22" fill="none" xmlns="http://www.w3.org/2000/svg">
<path fill-rule="evenodd" clip-rule="evenodd" d="M18.8621 2.37006L2.87743 8.60799L9.15695 11.05C9.16379 11.0527 9.17174 11.0557 9.18066 11.0591C9.26763 11.0922 9.44738 11.1606 9.60736 11.2747C9.74265 11.3712 9.86097 11.4895 9.95747 11.6248C10.0716 11.7848 10.14 11.9645 10.1731 12.0515C10.1765 12.0604 10.1795 12.0684 10.1822 12.0752L12.6242 18.3547L18.8621 2.37006ZM19.2702 0.0837332C19.4534 0.0305224 19.8219 -0.0650908 20.2176 0.0671234C20.6648 0.216501 21.0157 0.567406 21.1651 1.01455C21.2973 1.41032 21.2017 1.77878 21.1484 1.96197C21.0905 2.1616 20.9976 2.39952 20.9044 2.63822L14.2869 19.5954C14.1829 19.8622 14.082 20.1206 13.9834 20.3201C13.8982 20.4924 13.7085 20.8588 13.3149 21.0633C12.8808 21.2888 12.3641 21.2885 11.9303 21.0625C11.5369 20.8575 11.3477 20.4909 11.2626 20.3185C11.1643 20.1189 11.0638 19.8604 10.96 19.5934L8.35004 12.8821L1.67405 10.2859C1.66229 10.2813 1.65053 10.2768 1.63879 10.2722C1.37183 10.1684 1.11329 10.0679 0.913692 9.96953C0.741235 9.8845 0.374675 9.69525 0.169726 9.30188C-0.0562872 8.86809 -0.0565912 8.35134 0.168911 7.91727C0.373398 7.52367 0.739735 7.33398 0.912092 7.24876C1.11157 7.15012 1.37 7.04931 1.63684 6.94522C1.64857 6.94064 1.66032 6.93606 1.67208 6.93147L18.5939 0.327817C18.8326 0.234616 19.0706 0.141722 19.2702 0.0837332Z" fill="white"/>
</svg>
