<svg width="18" height="11" viewBox="0 0 18 11" fill="none" xmlns="http://www.w3.org/2000/svg">
<path fill-rule="evenodd" clip-rule="evenodd" d="M9.75 2C9.19771 2 8.75 1.55228 8.75 1C8.75 0.447715 9.19771 0 9.75 0H16.75C17.3023 0 17.75 0.447715 17.75 1V8C17.75 8.55228 17.3023 9 16.75 9C16.1977 9 15.75 8.55228 15.75 8V3.41421L10.4571 8.70711C10.0666 9.09763 9.43342 9.09763 9.04289 8.70711L6.25 5.91421L1.70711 10.4571C1.31658 10.8476 0.683417 10.8476 0.292893 10.4571C-0.0976311 10.0666 -0.0976311 9.43342 0.292893 9.04289L5.54289 3.79289C5.93342 3.40237 6.56658 3.40237 6.95711 3.79289L9.75 6.58579L14.3358 2H9.75Z" fill="white"/>
</svg>
