<svg width="20" height="20" viewBox="0 0 20 20" fill="none" xmlns="http://www.w3.org/2000/svg">
<path fill-rule="evenodd" clip-rule="evenodd" d="M3 2C2.44772 2 2 2.44772 2 3C2 3.55228 2.44772 4 3 4L17 4C18.6569 4 20 5.34315 20 7V17C20 18.6569 18.6569 20 17 20H3C1.34315 20 0 18.6569 0 17V3C0 1.34315 1.34315 0 3 0H15C15.5523 0 16 0.447715 16 1C16 1.55228 15.5523 2 15 2H3ZM2 5.82929V17C2 17.5523 2.44772 18 3 18H17C17.5523 18 18 17.5523 18 17V7C18 6.44772 17.5523 6 17 6L3 6C2.64936 6 2.31278 5.93985 2 5.82929ZM13 12C13 11.1716 13.6716 10.5 14.5 10.5C15.3284 10.5 16 11.1716 16 12C16 12.8284 15.3284 13.5 14.5 13.5C13.6716 13.5 13 12.8284 13 12Z" fill="white"/>
</svg>
